<svg width="1621" height="960" viewBox="0 0 1621 960" fill="none" xmlns="http://www.w3.org/2000/svg">
<path d="M753.1 958.8C747 958.1 745.8 957.2 742.9 950.7L741.3 947.2L731.1 947.1C725 947.1 720 946.6 718.7 945.9C717.5 945.2 711.9 938.1 706.3 930.2L696 915.7H679.8C661.2 915.7 661.3 915.7 659.4 907.7C658.7 904.9 657.8 902.4 657.3 902.2C656.9 901.9 655 903.6 653.2 905.9C649.1 911.2 648.4 911.7 646.4 910.7C645.5 910.2 640.1 896.7 633.9 879.2L622.9 848.6L615.6 839.9C609.3 832.4 608.4 830.8 608.9 828.4C609.2 826.9 609.2 825.7 608.8 825.7C608.4 825.7 602.2 827.5 595.1 829.8C582.8 833.7 581.5 833.9 574 833.3C564 832.6 562.8 831.6 564.4 825.6C565.5 821.4 565.5 821.2 562.7 818.9C557.3 814.5 554.5 813.5 549.4 814.2C546.1 814.6 544.4 814.4 543.7 813.5C543.1 812.8 542.1 806.5 541.4 799.7C540.7 792.8 539.7 786.4 539.2 785.5C538.7 784.5 534.1 782.4 528.4 780.6L518.5 777.4L512.7 779.9L506.9 782.5L491.4 780.9C480 779.8 474.7 779.6 471 780.4C464.3 781.8 433.2 777.1 422.9 773.2C416.5 770.8 415.8 770.7 414.7 772.2C413.5 773.9 413.6 774.8 417.3 785.1C420.2 793.2 420 795.7 416.8 795.7C415.4 795.7 412.5 794.8 410.4 793.7C408.2 792.6 404.9 791.7 402.9 791.7C399.6 791.7 399.4 791.9 398.4 795.9C396.1 805.2 396.2 805.1 391.3 805.7C388.9 805.9 386.9 806.7 387.1 807.3C387.2 807.9 389.5 811.8 392.3 816C395.1 820.2 397.4 824.4 397.4 825.4C397.4 827.9 387.7 838.7 385.5 838.7C384.6 838.7 381.6 837.1 378.9 835.2C373.3 831.2 371.4 830.9 368.9 833.7C366.1 836.7 364.4 836.2 358.1 830.4C353 825.8 352.2 824.6 351.3 819.8C350.8 816.9 350.1 814.1 349.7 813.5C349.1 812.5 344.3 812.8 339.6 814.2C337.3 814.9 337.2 814.8 330.1 806.3L327.7 803.3L319 805.4C308.9 807.7 307.2 807.1 305.2 800.7C304.1 796.8 304 796.7 299.5 796.9L295 797.2L293.6 790.2C289.9 770.9 290.8 772.9 285.3 770.5C280.3 768.4 279.7 767.6 279.1 761.2C278.9 758.4 278.6 758.2 275.4 758.4C273.4 758.6 270.9 758.9 269.7 759.2C266.8 759.8 264.4 757.3 264.4 753.7C264.4 752.1 263.9 750.7 263.3 750.5C262.7 750.3 256.3 751.1 249 752.3C241.8 753.5 233.4 754.8 230.4 755.3C225.1 756.1 224.9 756.3 223.3 760.4C221 766.8 219.7 767.7 214.4 766.7C209.1 765.7 208.1 764.5 206.5 757.2C205.8 754.2 204.8 751.4 204.3 751.1C203.8 750.8 200.1 752.3 196.1 754.4C189.2 758 188.8 758.4 188.5 762C188.3 765.5 187.7 766.2 181.2 770.3C177.4 772.8 174 775.4 173.8 776.1C173.5 776.8 173.7 778.6 174.3 780C175.1 782.1 175 783.6 173.9 786.3C171.6 791.7 172 793 176.8 796.7C179.5 798.6 181.7 801.3 182.2 803.1C183.5 807.2 184.5 825.9 183.6 827.3C183.2 827.9 181.5 829 179.9 829.8C178.2 830.6 176.9 831.7 177 832.3C177.1 832.8 177.5 834.3 177.8 835.7C179 841 178 841.2 160.8 839.3L145 837.6L139.8 841.2C136.9 843.1 131.5 846.1 127.7 847.7L120.9 850.6L120.8 861.4C120.7 867.3 120.6 872.7 120.5 873.4C120.4 874 118.1 877.5 115.4 881.1L110.4 887.6V904C110.4 915.9 110 920.7 109.1 921.4C107.4 922.8 94.3 925.7 89.5 925.7C83.7 925.7 82.4 923.3 82.4 913.1V904.9L76.9 896.6C71.3 888 70.6 885.8 72.4 881.2C73.1 879.1 72.9 877.7 71.2 874.4C68.4 868.7 64.5 863.7 63 863.7C62.3 863.7 59.4 863 56.7 862.2C50.9 860.5 51 860.6 46.8 845.7C44.4 836.9 43.8 835.8 39.2 831.7C36.2 829 31.5 822.7 27.5 816.2C21.6 806.6 20.4 805.2 16.9 804C14.7 803.2 12.3 802.1 11.7 801.4C11 800.7 10.2 794.8 9.8 786.7C9.4 779.2 8.5 771.4 7.7 769.2C3.1 756.2 1.4 750.1 0.2 743.2L-1 735.4L1.7 733.1C5.5 729.8 8.3 730 11.5 733.9L14.2 737.1L18.2 733.9C22 730.8 22.6 730.7 27.8 731.3L33.4 731.9V726.9C33.4 720 34.6 719.2 42.7 720.6C50.8 722 50.6 722 49.3 719.6C47.8 716.8 48.8 714.3 52.9 710.7C58.7 705.7 66.3 706.6 73.6 713.3C75.7 715.2 77.9 716.7 78.4 716.5C78.8 716.3 81.4 713.3 84 709.8C88.2 704.2 89.6 703.1 94.4 701.5C97.4 700.5 99.9 699.7 100 699.7C100.5 699.6 102.4 693.1 102.4 691.4C102.4 690.3 100.4 686.2 97.9 682.3C93.8 675.7 93.4 674.4 92.5 665.4C91.9 660.1 91.2 655.3 90.9 654.7C90.6 654.2 88 652.7 85.1 651.4C80.7 649.4 79.3 648 76.1 642.7C74 639.2 72.4 635.9 72.4 635.3C72.4 634.8 73.3 631.3 74.5 627.5L76.7 620.7L74.4 613.4C73.2 609.4 72.3 605.2 72.5 604.1C72.7 603.1 74.7 601.2 76.9 600.1C79.9 598.5 81.3 597 82.6 593.6C85.4 586.2 85.1 585.7 79 585.7C72.7 585.7 71.6 584.7 71.2 578.7C70.9 574.5 70.6 574 66.6 572.2C61.9 570 60.9 568.4 62.5 565.5C65.9 559 76.7 543.7 77.8 543.7C79.6 543.7 81.1 545.6 81.9 549C82.7 552.2 85.4 553.9 89 553.5C91.6 553.2 91.6 553 91.8 545.2C91.9 539.1 92.7 534.6 95.2 526.7C98.4 516.9 99 515.8 105 509.6C108.5 506 111.4 502.1 111.4 501C111.4 500 108.9 493 105.8 485.6C98.6 468.3 98.9 469.5 101.6 466.4C102.9 464.8 106.8 458.7 110.3 452.6C117.3 440.4 120 437.7 125 437.7C127.9 437.7 128.8 437 132.5 431.6C136.6 425.9 137.1 425.5 144.3 423.3C148.5 422 154.4 420.3 157.6 419.6C163.3 418.4 163.4 418.4 171.9 422.2C176.6 424.2 180.6 425.7 180.9 425.5C181.1 425.2 180.4 422.2 179.3 418.8C177.4 413.3 177.3 412.4 178.6 410.4C179.7 408.7 179.8 407.7 179 406.4C176.8 403 179.4 402.4 195.5 402.6C208.2 402.7 213.5 402.3 225.9 400.1C234.1 398.7 241.3 397.1 241.8 396.6C242.3 396.1 243.5 390.9 244.5 385C245.5 379.1 246.7 373.9 247.2 373.4C247.7 372.9 250.3 372 253 371.3C257.8 370.1 257.9 369.9 262.9 360.8C267.7 351.8 268.1 351.3 275.6 346.8C283.8 341.8 288.3 336.6 295.3 323.8L298.9 317.3L307.3 315.4C312 314.4 316 313.4 316.2 313.2C316.4 313 317.5 308.6 318.5 303.5C319.5 298.4 320.6 293.4 320.9 292.4C321.6 290.3 325.5 288.2 334.3 285.2C340.7 283.1 341.3 283 354.9 284.3C362.6 285 369.8 285.6 371 285.6C374.8 285.7 376.4 288.3 376.4 294.5C376.4 300.5 375.2 302.7 372.1 302.7C369.5 302.7 370.2 304.7 377 318C382.3 328.4 382.5 329.2 383.8 341.5C384.6 348.5 386.1 356.8 387.3 360.1C388.4 363.3 389.3 367.6 389.3 369.6C389.3 376.4 385.6 396.8 384.2 398.2C382.7 399.7 368.4 403.7 364.4 403.7C359.2 403.7 347 398 343.5 394C334.4 383.6 328.3 370.6 325.7 356.2C324.1 346.9 323.2 345.5 321 348.9C319.5 351.1 319.5 352.3 320.8 361.7C321.7 367.5 322.3 373 322.3 373.9C322.4 374.9 319.8 377.5 316.5 379.9C313.3 382.3 307.8 387.7 304.3 392L298 399.9L300.3 411C303.5 426.6 304.6 428.2 309.3 423.3C311.2 421.2 311.3 420.5 310.4 418.7C309.1 416.4 309.8 406.3 311.4 402C312.4 399.3 322.7 395.6 324.4 397.3C325 397.9 325.9 402.8 326.5 408.2C327.5 417.3 327.9 418.4 331.2 422.3C335.7 427.8 337.1 428.3 338.5 424.9C344 411.7 343.6 412.2 350 410.5C354.2 409.4 358.9 409.1 366.4 409.4C381.4 409.9 380.6 409.6 383.8 417.6C386.9 425.7 387.8 426 393.9 421.8L397.9 419L397.5 411.8L397.2 404.7L403.5 401.7C412.1 397.8 416.4 392.5 417.3 384.8C418.1 377.3 420.1 377 427.6 383.1C433 387.6 433.9 389.2 437.2 399.3C438.3 402.8 437 406.2 432.6 411.1C429.9 414.2 429.6 414.2 424 411.5C420 409.6 419.2 409.5 416.3 410.7L413.1 412L413.8 418C414.7 425.8 415.4 427.1 420 428.4C423.7 429.6 423.8 429.6 429.6 424.1L435.4 418.5L467.1 418.9C500.4 419.3 504.4 419.8 504.4 423.6C504.4 425.1 502.7 426.5 498.6 428.6C495.4 430.2 492 432.2 490.9 433C488.9 434.5 488.9 434.6 491.1 436.8C493.2 438.9 493.6 439 497.6 437.8C505.5 435.4 508.2 435.4 514.1 437.6C518.8 439.3 521.7 439.6 529.4 439.4L538.9 439.2V444.1C538.9 450.4 540.7 451.8 545.5 449C548.8 447.1 548.9 446.9 549 440.1C549.1 430.7 548.9 431.2 553.3 429.2L557.2 427.4L568.3 433.8L579.4 440.1L593.1 460.9C600.6 472.3 607.1 481.7 607.5 481.7C607.8 481.7 608.9 480.5 609.8 479.1C611.4 476.7 611.4 476.4 609.8 474C608.6 472 608.3 470.2 608.8 465.8L609.5 460.1L605.4 456.8C600.6 453 600.3 450.7 604.3 447.5C607.2 445.1 612.4 436 612.4 433.2C612.4 432.3 611.9 430.8 611.2 429.8C610.4 428.5 610.5 426.7 611.8 422.4C613.4 416.8 613.6 416.6 621.9 411.5C629.7 406.8 631.3 405.2 639 394.9C643.6 388.7 648 383.3 648.7 383.1C649.4 382.8 654.7 384.3 660.4 386.4C667.7 389.1 670.9 390.8 671.2 392C671.4 393 671 396.8 670.4 400.5C669.4 406.6 668.6 408.1 662.6 415.6L656 423.9L657.8 431.2L659.7 438.5L657 445.6C655.6 449.6 654.3 454 654.3 455.5C654.3 457 652.8 462.6 650.8 468.1C648.9 473.5 647.4 478.8 647.4 479.8C647.4 480.8 648.5 484.5 650 488L652.6 494.4L648.7 502.2C646.6 506.4 642.6 512.3 639.9 515.1C637.1 518 633 522.5 630.8 525C627 529.4 626.4 529.7 621.8 529.7C619.1 529.7 614.4 529 611.4 528.2C608.4 527.4 605.8 526.9 605.6 527.1C605.5 527.2 607.5 529.4 610.2 531.9C617 538.2 621.9 539 631 535.2C635.6 533.2 638.5 531.2 641.1 528C643.1 525.5 646.8 522.1 649.3 520.5C656.3 515.8 656.4 515.6 656.4 502.6V490.8L661.9 488.7C668.4 486.3 671.2 486.2 675.8 488.1C679.3 489.6 680.7 492.6 682.9 503.4C683.3 505.8 684.1 506.7 685.6 506.7C687.4 506.7 687.6 506.3 687 502C686.6 499.5 686.4 496.6 686.4 495.6C686.4 494.2 680.5 489 674.5 485.3C673.7 484.8 670 484.1 666.2 483.7C662.4 483.2 658.7 482.3 657.9 481.7C656.7 480.7 656.4 478.2 656.4 471.9C656.4 463.5 656.4 463.2 660.9 456L665.5 448.6L663 438.1C661.2 430.6 660.7 426.8 661.4 425.1C662.4 422.6 669.6 415 675.8 410.2C679.2 407.5 679.7 406.6 680.1 401.7C680.5 398.3 681.3 395.7 682.3 395C684.6 393.2 690 393.4 690.8 395.3C692.3 399.4 691.2 407.6 687.8 417.2C682.2 432.6 682.1 431.5 690.4 436C694.3 438.1 697.8 439.6 698.1 439.2C698.5 438.9 696.2 436 693.2 432.9C690.1 429.7 687.4 426.4 687 425.4C686.1 422.7 689.9 415.8 692.8 415.1C694.2 414.8 695.8 414.8 696.5 415.2C697.4 415.8 697.5 415.5 696.9 414.1C694.4 408.3 694.9 407.3 701.2 404.3C704.5 402.7 707.9 401.7 708.8 402C709.7 402.4 711.1 404.2 711.9 406C712.6 407.9 714.1 409.6 715.2 409.9C716.2 410.2 719.4 413.3 722.3 416.8C732.3 428.9 732.5 429.1 733.5 427.4C734.7 425.2 733.4 422.2 728 415C725.5 411.7 723.3 408.1 723.1 407C722.6 403 724.6 386.7 725.8 385.1C726.8 383.7 730.8 383 746.9 381.5C757.8 380.5 767 379.4 767.3 379.1C767.5 378.8 767 376.5 766.1 374C764.4 369.5 764.4 369.3 766.4 365.9C769.6 360.4 778.8 348.5 782.5 345C784.4 343.3 790.8 339.7 796.8 337C804.8 333.5 808.2 331.4 809.3 329.4C810.4 327.6 813.4 325.6 819.1 323C828 319.1 829.5 319.2 830.8 324.2C831.6 327.3 833 327.3 839.9 323.9C845.4 321.2 845.4 321.2 844.8 317.6C844.1 313.4 845.2 312.2 850.7 311.2L854.6 310.5L853.9 304.4L853.3 298.2L859.3 289C867.5 276.3 871.8 274.5 882.6 279C886.9 280.8 887.4 283.1 884.4 286.9C881.6 290.4 881.8 290.7 886.2 290.7C890.5 290.7 892.4 292.1 892.4 295.4C892.4 298.3 892.8 298.3 897.4 294.7C901 291.8 901.5 291.7 911.7 291.7H922.2L929.5 297.8C933.6 301.1 937.5 305.3 938.2 307C939.1 309 939.6 314.1 939.7 321.2C939.7 333.5 939.6 334 931 346.7C928.2 350.8 923.4 358.7 920.4 364.2C917.3 369.7 913.5 376.3 912 378.9L909.2 383.7H911.5C913.2 383.7 917.2 380.6 924.4 373.8C935.5 363.2 944.4 356.7 947.4 356.7C948.5 356.7 950.1 357.8 951 359.2C953 362.3 954.1 362.3 955.5 359.2C956.2 357.7 958.3 356.1 960.8 355.2C968.8 352.4 984.2 348.7 985.8 349.3C986.8 349.7 987.4 351.1 987.4 353.1C987.4 356.5 988.9 358.7 991.3 358.7C993.2 358.7 1014.3 350.1 1015.6 348.8C1016.2 348.2 1015.7 346 1014.5 343.2C1011.8 337.2 1011.8 335.4 1014.5 330.6L1016.7 326.7H1025.4C1033.8 326.7 1034.1 326.6 1038.2 323C1041.5 320.2 1042.9 319.6 1044.4 320.3C1046 321 1056 329.6 1071.1 343.2C1074.5 346.2 1074.9 349.7 1071.8 349.7C1069.6 349.7 1070.1 351.3 1073 353.6C1076.5 356.4 1097.4 363.1 1097.3 361.4C1097.3 361.3 1095.6 355.8 1093.4 349.2C1090.5 340.4 1089.8 336.9 1090.6 335.9C1091.4 335 1094.4 334.7 1101.6 334.9L1111.6 335.2L1113.3 330.2C1115.2 324.6 1117.8 322.7 1123.5 322.7C1126.7 322.7 1128.1 321.8 1132.8 317.1C1135.9 314 1138.3 311.2 1138.3 310.9C1138.3 310.5 1135.6 308.3 1132.3 305.9C1129 303.6 1126.3 300.9 1126.3 299.9C1126.3 299 1125.9 295 1125.4 291.2C1125 287.3 1125 283.4 1125.5 282.5C1126 281.5 1129.9 278.8 1134.1 276.4C1157.9 262.9 1166.1 257.7 1170.7 253.6C1177.7 247.3 1179.2 246.7 1186.7 246.7C1194.4 246.7 1196.4 248.1 1194.6 252.7C1194 254.4 1193.8 255.8 1194.2 256C1194.8 256.4 1217.8 251.5 1220.7 250.4C1221.5 250.1 1226 242.2 1230.7 233L1239.2 216.1L1248.2 211.4L1257.2 206.6L1264 207.7C1269.8 208.6 1271.4 209.3 1274.6 212.4L1278.3 216.1L1282.6 213.1C1286.2 210.5 1287.2 209 1289.4 202.6C1292.4 193.8 1291.8 194.9 1301.4 181.7C1307.5 173.4 1309.2 170.2 1309.8 166.5C1310.2 163.9 1311 161.4 1311.7 160.9C1312.3 160.3 1317.6 159.6 1323.5 159.2C1329.3 158.8 1334.5 158.2 1335.1 157.8C1336.6 156.8 1337.3 150.1 1336.1 148.8C1335.5 148.2 1332.2 147.7 1328.8 147.7C1323.1 147.7 1322.2 147.4 1318.2 144.1C1315.8 142.1 1313.5 139.7 1313 138.6C1312.3 137.2 1314.6 132.5 1322.8 118C1334.8 96.7 1336.8 94.5 1359.8 76.4C1378.1 62.1 1411.2 39.7 1414.3 39.7C1415.6 39.7 1419.6 40.6 1423.2 41.8C1427.7 43.4 1430 43.7 1431.2 43C1434.3 41.1 1433.4 40 1428.3 39.3C1425.5 39 1422.5 38.2 1421.8 37.6C1419.5 35.7 1420.1 31.3 1422.9 28.7C1424.3 27.4 1425.8 24.5 1426.4 22.2C1428.5 14 1429.3 13 1439.4 6.29999C1444.9 2.59999 1450.3 -0.200012 1451.5 -0.200012C1452.7 -0.200012 1456.1 1.49999 1459 3.69999C1465 8.19999 1465.3 9.09999 1462.9 18.3C1462 21.4 1461.6 24.2 1461.8 24.5C1462.1 24.8 1467.6 25.8 1474 26.9C1489.5 29.5 1490 29.7 1491.4 34.9C1492.5 38.7 1492.4 39.6 1490.2 43.6C1488.3 47.4 1487.2 48.3 1483.7 49.1C1480.3 50 1478.8 51.3 1474.7 56.7C1470 63 1469.7 63.2 1464.6 63.7C1457.1 64.4 1454.6 67.3 1453.2 76.2C1452.6 80 1451.7 83.8 1451.1 84.5C1450.3 85.5 1448.1 85.6 1442.3 85.1C1433.9 84.4 1432.8 84.9 1434.3 89C1435.1 91.1 1436.1 91.6 1440.5 92.1C1457.4 94.2 1456.8 93.7 1460.4 108.5L1462.7 117.7L1459.4 121.8C1456.8 125.1 1456.4 126.1 1457.5 126.8C1459.5 128.1 1459.6 128 1466.2 123.6C1473.1 119 1473.6 118.9 1481.9 120.6C1487.4 121.8 1488.4 121.7 1495.2 119.4C1499.3 118 1503.4 117.1 1504.4 117.4C1506.5 117.9 1516.4 126.5 1516.4 127.8C1516.4 128.3 1513 132.3 1508.9 136.7C1504.7 141.1 1501.4 145.6 1501.4 146.7C1501.4 148.7 1508.5 176.8 1513.3 194.2C1521.7 223.9 1523.5 229.1 1527.5 234.7C1529.8 238.1 1531.2 241 1530.8 241.9C1530.3 243.2 1515.7 248.7 1512.6 248.7C1510.4 248.7 1509.4 251.7 1508.3 260.7L1507.2 270.2L1510.3 276.9C1512 280.6 1513.4 284.3 1513.4 285.2C1513.4 287.8 1510.4 288.1 1506.3 285.7C1504.1 284.5 1501.9 283.7 1501.4 283.8C1500.9 284 1501.3 286.1 1502.4 288.5C1505.1 294.5 1504.9 296.5 1500.8 301.6C1498.9 304 1497.4 306.5 1497.4 307.1C1497.4 307.8 1499.8 312.1 1502.8 316.7C1505.8 321.4 1510.5 328.8 1513.3 333.3C1516.1 337.8 1519 342 1519.8 342.6C1521.8 344.3 1523.5 343 1522.8 340.3C1522.1 337.5 1523.6 336.2 1529.2 334.7C1535.3 333.1 1537.4 333.9 1540.7 339.2C1544.8 345.6 1551 348.7 1560.3 348.7C1566.4 348.7 1567.3 348.9 1567.9 350.7C1568.7 353.2 1567.5 360.7 1566.1 362.5C1564.9 363.9 1567.9 375 1569.8 376.5C1570.4 377 1574.1 378.2 1578.2 379.2C1586.5 381.2 1587.8 382.5 1588.8 390.3C1589.5 395.1 1589.3 395.7 1586.4 399C1583.6 402.2 1583.3 403.1 1583.6 407.9L1583.9 413.1L1590.9 417.9C1594.7 420.5 1598.4 423.4 1599.1 424.3C1599.9 425.5 1600.4 429.8 1600.4 436.8V447.6L1605.4 453.3C1608.2 456.5 1611.7 461.4 1613.3 464.1C1616.4 469.7 1621.8 490.8 1620.8 493.8C1619.5 498.1 1614.8 496.2 1569.5 473.5L1525.1 451.2L1514.5 439.6L1503.8 428.1L1501.9 418.8C1500.1 409.6 1500 409.4 1495.3 405.8C1489.8 401.6 1489.5 400.6 1492.1 391L1493.8 384.6L1489.7 372.4C1487.4 365.7 1482.7 352.3 1479.3 342.7C1471.6 320.7 1471.5 320.6 1470.5 306.4C1469.5 292.7 1469.9 293.2 1456.9 284.1C1447.9 277.8 1447.1 276.5 1449.9 271.7C1451.5 268.7 1451.8 266.3 1450.3 267.2C1448.8 268.1 1444.3 277.3 1444.4 279.4C1444.5 280.4 1447.7 283.8 1451.5 287L1458.5 292.9L1457.9 297.5C1457.4 300.7 1458 306.2 1459.8 315C1462.6 329.2 1462.9 332.2 1461.3 333.2C1460.7 333.6 1457.2 333.6 1453.6 333.2C1447.5 332.5 1446.7 332.1 1441.9 327.6C1435.8 321.9 1436.8 321.4 1428.5 333.9C1425.7 338.2 1423.4 342.8 1423.4 344.2C1423.4 348.2 1436.4 389.8 1438.7 393.4C1441.2 397.2 1441.6 397.3 1445.3 394.6C1448.8 392 1451.1 392.9 1453.9 398.1C1456 402.1 1456.5 401.1 1448.1 411C1445.1 414.5 1443.7 417.5 1441.8 424.8C1436.2 445.6 1437.1 444.5 1427.3 442.7C1421.1 441.5 1420.2 440.5 1421.5 436.4C1421.9 434.7 1422.1 433.1 1421.9 432.9C1421.6 432.6 1417.3 434.8 1412.3 437.8C1406 441.5 1403.4 443.6 1403.7 444.7C1404 445.5 1405 448.2 1406 450.7C1408.2 456.5 1407.5 458.3 1402.5 459.8C1398.7 460.9 1398.4 461.2 1398.2 465.1C1397.9 469.1 1397.8 469.2 1392.1 471.2C1386.6 473 1386.4 473.3 1386.2 476.7C1386.2 478.6 1386.2 480.5 1386.2 480.9C1386.3 481.2 1383.9 482.2 1381 483.1C1376 484.5 1375.1 485.4 1365.5 496.9C1359.9 503.7 1355.4 510.1 1355.4 511.2C1355.4 512.3 1356.1 514.3 1356.9 515.7C1358.9 519.3 1358.7 522.8 1355.9 530.2L1353.4 536.7L1357.1 542.7L1360.7 548.8L1357.4 561.5L1354.2 574.2L1355.8 588.4L1357.5 602.7L1354 618.9C1348.9 642.1 1348.9 642.7 1350.6 642.7C1351.4 642.7 1355.2 640.4 1359.2 637.7C1363.1 634.9 1366.8 632.7 1367.5 632.7C1368.2 632.7 1369.7 633.6 1370.9 634.7C1373 636.7 1373.2 636.7 1379.5 635C1383.1 634.1 1386.6 633.6 1387.5 633.9C1388.3 634.2 1389.5 636.4 1390.2 638.7C1391.5 642.7 1391.6 642.8 1393.4 641.1C1396 638.8 1395.9 637 1392.9 632.2C1389.3 626.4 1389.7 624.6 1395.2 619.4C1400.9 614.1 1405.5 612.8 1412.1 614.5C1414.5 615.2 1420.9 615.7 1426.4 615.7H1436.4V612.6C1436.4 610.9 1437 608.3 1437.9 606.7C1439.9 602.7 1438.9 601 1433.3 599.1C1424.9 596.3 1424 590.5 1431.1 585C1433.5 583.2 1436 582 1436.7 582.2C1437.4 582.5 1439.9 585.2 1442.4 588.3C1444.8 591.4 1451.7 598.2 1457.5 603.3C1463.7 608.7 1469 614.3 1470 616.4C1472 620.5 1471.6 620.2 1501.9 636.9C1532.7 653.9 1535.5 655.7 1535.2 658C1534.9 659.4 1532.8 660.8 1527.4 663.1C1523.2 664.8 1519.8 666.9 1519.6 667.7C1519.5 668.5 1522 675.2 1525.3 682.7C1529.7 692.7 1531.9 696.7 1534.1 698.2C1535.7 699.3 1543.6 702.4 1551.6 705C1565.8 709.6 1566.4 710 1570.3 714.6C1574.3 719.4 1575.3 722 1573.4 723.2C1572.9 723.5 1568.6 723.2 1563.8 722.6C1559.1 722 1555 721.7 1554.6 722.1C1554.3 722.4 1555.5 725.7 1557.2 729.5C1560.5 736.6 1561.1 740.1 1559.3 741.2C1558.2 741.9 1545.6 735.8 1540.8 732.1C1536.6 729 1525.5 713.9 1520.9 704.9C1517.7 698.8 1516.5 697.4 1512.9 695.8C1509.6 694.3 1505.7 690.2 1493.6 675.6C1471.9 649.1 1472.9 650 1464 646.2L1456.1 642.8L1456.7 647.4C1457.8 655.4 1465.3 669.2 1474.2 679.7C1478.9 685.1 1485.3 694.3 1489.3 701.2L1496.1 713.2L1497.3 732.7C1498.1 747.4 1499 754.6 1500.9 762.2C1503.4 771.9 1503.5 773.5 1504.1 813.7L1504.6 855.3L1500.4 864.7C1498.1 869.9 1494.8 877.1 1493.1 880.7L1489.9 887.2L1478.4 890.7C1472 892.7 1466.2 894.5 1465.5 894.7C1464.6 895.1 1463.9 897.9 1463.4 902.7C1462.4 911.7 1458.3 921.7 1455.5 921.7C1454.5 921.7 1452.4 921.2 1450.8 920.7C1449.2 920.2 1446 919.3 1443.7 918.7C1438 917.3 1437.7 915.4 1442.2 910.9C1444.3 908.9 1447 905.1 1448.2 902.5L1450.5 897.8L1444.8 888.8C1440.8 882.3 1437.4 878.3 1432.8 874.6C1429.3 871.7 1426.2 868.8 1426 868.1C1425.7 867.4 1426.8 862.7 1428.5 857.7C1431.9 847.5 1432.3 847.2 1441.8 846C1449.4 845.2 1449.9 844.7 1448.6 839.5C1448 837.1 1447.2 831.1 1447 826.2C1446.5 818.2 1445.9 815.8 1441.4 805.2C1436.9 794.6 1436.4 792.6 1436.9 788.5C1437.5 784.4 1437.1 783.3 1433.7 777.8C1431.6 774.4 1429.6 771.7 1429.2 771.7C1428.5 771.7 1417.9 788.1 1415.2 793.5C1414.2 795.5 1410.1 800.7 1406 804.9L1398.8 812.7H1393.2H1387.7L1379.9 804.1C1373.7 797.3 1371.7 795.7 1370.1 796.2C1369 796.6 1363.9 796.3 1358.9 795.6C1349.8 794.4 1349.5 794.4 1343.2 796.9C1339.7 798.3 1333.8 800.2 1330 801.1C1323.7 802.7 1323 802.7 1320.7 801.2C1318.5 799.7 1304.3 787 1277.5 762.4C1272.2 757.5 1266.8 753.1 1265.5 752.6C1262 751.2 1257.1 751.5 1254.5 753.3C1252.6 754.6 1250.6 754.8 1242.3 754.2L1232.4 753.5L1225.6 757.7C1210.3 767.3 1201.4 776.8 1201.4 783.3C1201.4 784.2 1204.3 788 1207.9 791.8C1211.4 795.6 1214.4 799.6 1214.4 800.7C1214.4 801.8 1213.2 805 1211.9 807.7C1209.5 812.2 1209.4 813.7 1209.4 826.5V840.5L1212.8 844.6C1214.7 846.9 1216 849.3 1215.8 850C1215.5 850.7 1212.9 852.5 1210 853.9C1205.3 856.2 1204.4 857.1 1202.4 862C1199.9 868.1 1198.7 868.9 1188.8 870.6C1183.9 871.5 1181.8 871.4 1177.4 870.1L1172 868.5L1167.9 873C1163.3 878 1163.8 877.9 1153.1 874.7C1151 874.1 1147.4 873.7 1145.1 873.9C1140.5 874.2 1140.1 874.7 1132 888.6C1129.4 893 1126.5 895.7 1115.9 903.5L1102.9 913L1084.9 915.3C1059.7 918.5 1059.1 918.4 1053.8 914C1044.6 906.5 1016.5 903.9 1008.2 909.8C1006.3 911.1 1002.9 913.6 1000.5 915.4C998.2 917.2 995.4 918.7 994.4 918.7C993.4 918.7 987.5 917.5 981.2 916.1C973.4 914.4 969.3 913 968.2 911.7C967.3 910.6 965.6 906.6 964.4 902.7C963.3 898.9 962 895.5 961.5 895.3C960.2 894.4 924.1 886.7 921.7 886.7C920.1 886.7 917.7 889.2 912.7 895.9C909 901 906 905.8 906.1 906.7C906.2 907.5 908 912.8 910.2 918.5C912.4 924.1 914 929.5 913.7 930.3C913.4 931.1 910 933.3 906.3 935.2L899.4 938.7H878.4C857.7 938.7 857.4 938.6 856 936.4C855.2 935.2 854.3 932.7 853.9 931C853.5 929.2 852.7 927.3 851.9 926.7C851.2 926.2 845.1 924.7 838.3 923.6L825.9 921.5L808.1 930.3C791.3 938.7 790.3 939.3 789.7 942.4C789.4 944.2 788.7 945.9 788.2 946.3C787.7 946.6 783 947.9 777.6 949.2C768.4 951.4 764.7 953.5 763.2 957.5C762.6 959 759.3 959.4 753.1 958.8ZM1443.4 628.2C1443.4 627.9 1442.2 625.8 1440.7 623.6C1438.5 620.3 1437.9 619.8 1437.1 621.1C1435.9 623.4 1437 626.2 1439.6 627.5C1442.2 628.7 1443.4 628.9 1443.4 628.2ZM716.8 417.7C715.3 416 713.5 414.7 713 414.7C712.4 414.7 713.5 416.2 715.3 418.2C717.2 420.1 718.9 421.4 719.2 421.1C719.5 420.9 718.4 419.3 716.8 417.7ZM686.4 405.2C686.5 404.1 686.5 402.3 686.4 401.2C686.2 399.2 686.2 399.2 685.4 401.2C684.2 403.9 684.1 410.7 685.3 408.7C685.8 407.8 686.3 406.3 686.4 405.2ZM22.7 436.4C17.8 431 0 405 0 403.2C0 401.4 0.7 401.1 7.9 400.4C18 399.4 19.9 399.9 22.6 404.2C25.3 408.3 25.6 408.3 29.3 405.5C30.9 404.4 32.9 403.6 33.6 403.9C35 404.5 37.9 412.8 42 427.4C43.2 431.8 43.4 434.1 42.7 434.8C41.5 436 31 438.6 27.3 438.6C25.8 438.7 23.8 437.7 22.7 436.4ZM528.6 396.7C522.4 392 519.4 388.9 518.9 387C518.5 385.5 517.1 379 515.8 372.5C513.6 361.4 513.5 360.5 515 355.5C517 348.7 517.5 348.1 523.2 346.2C526.8 345 530 342.5 536.9 335.7C544.3 328.2 546.3 326.7 548.9 326.7C551.4 326.7 552.6 325.8 555.1 322.4C557 319.8 563.7 314 571.8 308.1C579.3 302.6 587.2 296.9 589.3 295.3C594.1 291.8 607.3 289.3 632.9 287.2C643.7 286.3 652.2 285.1 656.4 283.8C664.2 281.3 667.2 281.2 670.2 283.3C672.3 284.8 672.5 285.5 672.1 290.4C671.7 295.1 671.2 296.3 667.4 300.2C665 302.6 661.9 304.8 660.4 305.1C657.1 305.9 645.5 307.4 632.9 308.7C622.6 309.8 617.3 312 605.7 319.8C603.4 321.4 598.2 324.1 594.2 326C590.1 327.9 583.1 332.4 578.4 336.3C573.7 340.1 567.6 344.9 564.9 346.9C560 350.4 551.1 359.9 546.6 366.3C544.7 369 544.4 370.8 544.4 378.7C544.4 383.8 544.9 390.9 545.5 394.4C546.8 401.9 545.9 403.7 540.8 403.7C538.3 403.7 535.5 402.1 528.6 396.7ZM1110.6 279C1109.4 276.8 1108.2 263.1 1109 261.1C1109.3 260.3 1110 259.7 1110.4 259.7C1110.9 259.7 1113 258.5 1115.1 257.1C1118.3 254.8 1119.7 254.5 1124.9 254.9C1131.6 255.3 1137.4 258.4 1137.4 261.7C1137.4 263.5 1116.8 279.5 1113.2 280.4C1112.3 280.7 1111.1 280.1 1110.6 279ZM840.4 277.7C839.3 277 839.2 275.1 840.1 267C840.7 261.6 841 257 840.8 256.8C840.7 256.7 839.6 257 838.5 257.6C836.9 258.5 834 258.2 825.8 256.3C820 254.9 814.7 253.3 813.9 252.7C811.4 250.7 808.1 238.2 808.8 233.8C809.4 230.5 809.2 229.5 807.9 229.1C807.1 228.7 806.4 227.9 806.4 227.2C806.4 226.4 804.8 224 802.9 221.7C800.9 219.4 799.4 217.3 799.4 217C799.4 215.2 803.7 199.8 804.8 197.7C807 193.7 813.9 187.4 815.9 187.8C816.8 188 820 192.1 822.9 197C827.6 204.7 828.3 206.6 828.6 211.9C828.9 218.3 829.4 219 834.8 220.2C836.4 220.5 839.2 222.3 841 224.1C844 227.1 844.4 228.1 844.4 233.1C844.4 236.3 844.8 238.7 845.4 238.7C846 238.7 848.1 237.5 850.1 236.2C854.9 232.9 855.8 233 858.2 237.1C859.7 239.7 860.7 240.4 862.3 240C863.4 239.7 865 240 865.9 240.7C867.8 242.3 875.4 258.3 875.4 260.8C875.4 263.1 874.9 263.4 859.9 270.3C841.9 278.6 841.9 278.6 840.4 277.7ZM1073 256.7C1069.2 255.7 1065.7 254.4 1065.1 253.8C1064.5 253.2 1063.3 248.8 1062.3 244C1061.3 239.1 1060.2 233.8 1059.9 232.1C1059.4 229.8 1059.6 228.5 1061 227.2C1062.5 225.7 1063.9 225.5 1069.7 226L1076.6 226.6L1075.9 223.4C1074.3 216.3 1074.3 216.2 1080.9 215.6C1084.2 215.2 1089.7 213.8 1093.1 212.3C1096.5 210.9 1099.9 209.7 1100.7 209.7C1105.5 209.7 1109.9 223.5 1107.6 231.3C1106.2 235.9 1093.7 252.5 1089 256.2C1085.1 259.1 1082.4 259.2 1073 256.7ZM1112.1 218.4C1109.8 216.5 1105.2 208.7 1105.6 207.1C1105.7 206.3 1111.9 202.8 1119.3 199.2C1133.6 192.3 1139.4 191 1141.2 194.4C1142.3 196.5 1139.8 211.6 1138 213.4C1137.3 214.1 1132.5 215.6 1127.3 216.7C1122.1 217.8 1116.9 218.9 1115.8 219.2C1114.6 219.4 1113 219.1 1112.1 218.4ZM662.1 190.3C660.8 189.3 659.3 189.1 656.6 189.8C654.5 190.2 651.6 190.6 650.1 190.6L647.3 190.7L647.4 183.9C647.5 180.2 647 173.7 646.3 169.5C645.2 163.2 645.2 161.5 646.3 160.2C647 159.4 648.1 158.7 648.7 158.7C649.2 158.7 650.5 157.9 651.5 157C653.3 155.5 665.2 151.7 668.5 151.7C670.2 151.7 675.4 158.7 675.4 161.1C675.4 162 674.1 163.4 672.6 164.4C671.1 165.3 669.6 166.5 669.2 167C668 168.8 669.7 171.7 673.1 173.8L676.6 176L684.1 174.1C689.5 172.8 692 172.6 693.2 173.3C695.4 174.7 698.8 183 698 185.1C697.2 187.3 686.6 191.9 683.9 191.3C682.7 191 680.5 189.6 679.1 188.3L676.5 185.9L673.7 188.8C670.7 192 665.3 192.7 662.1 190.3ZM609.7 171.3C603.6 167.1 603 164.4 607.5 162L610.9 160.3L607.9 159.7C606.2 159.4 604.7 158.4 604.6 157.5C604 154.8 608.2 147.7 611.2 146.4C612.6 145.7 614.4 144.5 615 143.7C615.9 142.5 617.5 142.9 625.9 146.2C636.2 150.3 639.9 152.8 638.9 155.3C638.6 156.2 638.4 159.4 638.3 162.5C638.3 165.6 638 168.7 637.5 169.5C636.8 170.6 619.7 174.7 615.9 174.7C615.2 174.7 612.4 173.2 609.7 171.3ZM1312.7 71.4C1306.1 64.3 1305.4 62.8 1305.4 56.1C1305.4 48.6 1306 46.7 1308.5 46.7C1309.5 46.7 1312.9 44.9 1316.1 42.7C1322.8 38 1325 37.7 1326.4 41.2C1328.8 47.5 1326.2 69.7 1322.7 73.2C1320.2 75.7 1316 75 1312.7 71.4Z" fill="black"/>
</svg>
