<svg xmlns="http://www.w3.org/2000/svg" viewBox="0 0 230.12 298"><defs><style>.cls-1{fill:#fff;}</style></defs><title>S_white</title><g id="Слой_2" data-name="Слой 2"><g id="Слой_4" data-name="Слой 4"><path class="cls-1" d="M163.71,242.7q-17.7,11.15-42.37,11.14-26.66,0-46.35-14.12t-26-39.59L0,207.69q4.38,27.45,20.49,47.94a104.22,104.22,0,0,0,41.37,31.43Q87.12,298,118.56,298q30.23,0,55.69-10.14T215,257.42q13.43-17.81,15.08-41.73H181.2C180.18,227,174.39,236,163.71,242.7Z"/><path class="cls-1" d="M218.22,166.71q-12.15-15.9-28.05-23.27A234.27,234.27,0,0,0,154,130.51l-51.32-14.72Q83.54,111,72,103.46T60.47,81.18A28.89,28.89,0,0,1,68,61.48q7.55-8.55,20.09-13.12A72.15,72.15,0,0,1,115,44.17q23.07.4,40.58,13.33t22.27,34.81L228.36,84Q222,57.32,206.68,38.61a97.92,97.92,0,0,0-38.59-28.45Q144.81.41,115.77,0,85.94-.36,62.26,9.37T24.87,38Q11.13,56.91,11.14,83.56q0,33,18.3,49.14T74.8,156.37l74,21.88q16.71,5.17,24.67,13.33a27.53,27.53,0,0,1,4,5.31h52.21Q227.42,178.82,218.22,166.71Z"/></g></g></svg>