<?xml version="1.0" encoding="UTF-8"?>
<svg xmlns="http://www.w3.org/2000/svg" width="300" height="301" viewBox="0 0 300 301" fill="none">
  <rect y="0.754883" width="300" height="300" rx="58.5366" fill="white"></rect>
  <path d="M186.717 221.394C177.823 226.997 167.177 229.796 154.78 229.791C141.383 229.791 129.737 226.243 119.843 219.147C109.948 212.052 103.416 202.105 100.245 189.306L63.3176 195.004C65.5186 208.798 70.6669 220.843 78.7624 231.14C86.9902 241.543 97.718 249.693 109.946 254.831C122.639 260.328 136.885 263.077 152.684 263.077C167.875 263.077 181.868 260.529 194.662 255.434C207.456 250.338 217.695 242.69 225.378 232.489C232.127 223.539 235.916 213.054 236.745 201.034H199.901C199.132 209.559 194.767 216.343 186.717 221.394Z" fill="#092433"></path>
  <path d="M227.806 164.114C221.7 156.124 214.652 150.278 206.662 146.574C197.856 142.585 188.738 139.325 179.399 136.828L140.715 125.732C131.097 123.325 123.388 120.227 117.589 116.438C111.79 112.65 108.893 107.052 108.899 99.6445C108.852 94.1563 110.879 88.8529 114.574 84.7952C118.368 80.4988 123.416 77.2023 129.718 74.9058C136.217 72.5749 143.101 71.5031 150.002 71.7475C161.594 71.9485 171.79 75.2977 180.589 81.7952C189.388 88.2927 194.984 97.039 197.376 108.034L235.449 101.77C232.253 88.3631 226.806 76.9586 219.107 67.5565C211.338 58.1084 201.342 50.7393 190.019 46.1118C178.321 41.2123 165.175 38.6596 150.582 38.4535C135.592 38.2726 122.147 40.6269 110.248 45.5163C98.3483 50.4058 88.9538 57.5993 82.0643 67.0967C75.1598 76.5993 71.7101 88.0465 71.7151 101.438C71.7151 118.021 76.3131 130.368 85.5091 138.479C94.705 146.589 106.102 152.536 119.7 156.32L175.479 172.813C183.876 175.411 190.074 178.76 194.074 182.861C195.237 184.068 196.25 185.412 197.089 186.863H236.444C235.308 177.783 232.429 170.2 227.806 164.114Z" fill="#EB4247"></path>
</svg>
